<svg width="220" height="35" viewBox="0 0 220 35" xmlns="http://www.w3.org/2000/svg"><g fill="#000" fill-rule="evenodd"><g fill-rule="nonzero"><path d="M8.872 33.13c-.52 0-1.039-.13-1.515-.435-.692-.392-1.168-1.045-1.385-1.828L.39 8.704a3.037 3.037 0 0 1 2.163-3.658l7.53-1.915c.217-.044.477.087.52.304.043.218-.086.48-.303.523L2.77 5.874C1.645 6.179.952 7.31 1.255 8.443l5.583 22.162c.13.566.476 1.002.952 1.307a1.881 1.881 0 0 0 1.601.217l13.72-3.44c.39-.087.692-.26.952-.566a.417.417 0 0 1 .606 0c.173.175.216.392.043.566-.39.436-.866.697-1.428.871L9.608 33.044c-.26.087-.52.087-.736.087z"/><path d="M8.57 30.649c-.174 0-.39-.13-.434-.349L4.414 15.496c-.043-.217.087-.479.303-.522.217-.044.476.087.52.305l3.722 14.804c.043.217-.087.479-.303.522-.044.044-.044.044-.087.044z"/></g><g fill-rule="nonzero"><path d="M30.827 34.479c-.26 0-.478-.044-.739-.088l-11.523-3.004c-.217-.044-.391-.31-.304-.53.043-.221.304-.398.522-.31l11.523 2.96c.565.133 1.13.044 1.608-.22.479-.31.827-.752.957-1.326l5.61-22.484c.304-1.148-.392-2.34-1.523-2.606l-6.74-1.723c-.217-.044-.39-.309-.304-.53.044-.22.305-.397.522-.309l6.74 1.723c1.609.397 2.565 2.076 2.174 3.71l-5.61 22.44c-.217.795-.695 1.458-1.39 1.855-.48.31-1 .442-1.523.442z"/><path d="M33.436 22.73h-.087c-.217-.045-.391-.31-.304-.53L36.35 8.946c.043-.22.304-.397.521-.309.218.044.392.31.305.53L33.87 22.42c-.043.177-.217.31-.435.31z"/></g><g fill-rule="nonzero"><path d="M26.502 29.276H12.257c-1.65 0-2.996-1.37-2.996-3.047V3.047C9.26 1.369 10.607 0 12.257 0h14.245c1.65 0 2.996 1.369 2.996 3.047v23.226c-.043 1.634-1.346 3.003-2.996 3.003zM12.257.883c-1.172 0-2.128.972-2.128 2.164v23.226c0 1.192.956 2.164 2.128 2.164h14.245c1.172 0 2.128-.972 2.128-2.164V3.047c0-1.192-.956-2.164-2.128-2.164H12.257z"/><path d="M21.594 3.135a.391.391 0 0 1-.304-.132.481.481 0 0 1-.13-.31c0-.132.043-.22.13-.309a.415.415 0 0 1 .608 0c.087.089.13.177.13.31 0 .132-.043.22-.13.309a.391.391 0 0 1-.304.132zM26.806 6.403c-.261 0-.435-.177-.435-.442V3.135h-2.78c-.26 0-.433-.177-.433-.441 0-.265.173-.442.434-.442h2.866c.434 0 .738.353.738.75v2.915c.044.265-.13.486-.39.486zM17.165 27.024a.391.391 0 0 1-.304-.133.404.404 0 0 1-.13-.309c0-.132.043-.22.13-.309a.415.415 0 0 1 .608 0c.086.088.13.22.13.31 0 .132-.044.22-.13.308a.465.465 0 0 1-.304.133zM15.123 27.024h-2.866a.738.738 0 0 1-.738-.751v-2.914c0-.265.174-.442.434-.442s.434.177.434.442v2.826h2.78c.26 0 .434.176.434.441s-.217.398-.478.398zM19.38 19.65h-.087c-.218-.045-.391-.31-.304-.53l.955-3.93h-1.65c-.13 0-.26-.089-.348-.177-.087-.088-.087-.265-.043-.397l1.476-4.725a.496.496 0 0 1 .565-.31c.217.09.347.31.304.575l-1.26 4.15h1.65c.131 0 .261.045.348.177.087.133.13.265.087.398l-1.13 4.46c-.216.176-.39.309-.564.309z"/></g><path d="M46.18 26.587a.562.562 0 0 1-.18-.413V10.85a.61.61 0 0 1 .168-.437.569.569 0 0 1 .432-.177h6.79c2.08 0 3.71.464 4.895 1.393 1.183.929 1.775 2.29 1.775 4.085 0 1.794-.592 3.136-1.775 4.026-1.184.889-2.816 1.334-4.895 1.334h-2.735v5.1a.582.582 0 0 1-.168.413.569.569 0 0 1-.432.177H46.6a.58.58 0 0 1-.42-.177zm7.09-8.89c.656 0 1.172-.169 1.548-.507.375-.339.563-.839.563-1.5 0-.614-.172-1.11-.515-1.487-.344-.378-.876-.567-1.596-.567h-2.687v4.061h2.687zm10.605 7.674c-1.312-1.086-2.007-2.684-2.087-4.793a61.782 61.782 0 0 1-.024-2.03c0-.914.008-1.598.024-2.055.064-2.078.763-3.68 2.1-4.805C65.222 10.563 67.01 10 69.25 10c2.223 0 4.002.563 5.338 1.688 1.336 1.126 2.036 2.727 2.1 4.805.032.913.048 1.598.048 2.054 0 .472-.016 1.15-.048 2.03-.08 2.11-.772 3.708-2.076 4.794C73.308 26.457 71.521 27 69.25 27c-2.272 0-4.063-.543-5.375-1.63zm7.366-2.656c.496-.496.76-1.256.792-2.279.032-.913.048-1.566.048-1.96 0-.393-.016-1.03-.048-1.912-.032-1.023-.296-1.783-.792-2.279-.496-.495-1.16-.743-1.991-.743-.848 0-1.52.248-2.016.743-.496.496-.76 1.256-.792 2.279-.016.44-.024 1.078-.024 1.912 0 .85.008 1.504.024 1.96.032 1.023.296 1.783.792 2.279.496.495 1.168.743 2.016.743.831 0 1.495-.248 1.991-.743zm8.386 3.872a.562.562 0 0 1-.18-.413V10.85a.61.61 0 0 1 .168-.437.569.569 0 0 1 .432-.177h3.215c.176 0 .32.06.432.177a.61.61 0 0 1 .168.437v5.147l4.246-5.289c.176-.314.488-.472.936-.472h3.671c.128 0 .244.051.348.154a.47.47 0 0 1 .156.342c0 .126-.032.22-.096.283l-5.59 7.13 6.046 7.84c.064.063.096.157.096.283a.47.47 0 0 1-.156.342.512.512 0 0 1-.372.154H89.38c-.256 0-.464-.051-.624-.154a.999.999 0 0 1-.336-.318l-4.558-5.761v5.643a.582.582 0 0 1-.168.413.569.569 0 0 1-.432.177h-3.215a.58.58 0 0 1-.42-.177zm16.027 0a.562.562 0 0 1-.18-.413V10.826c0-.173.06-.314.18-.425.12-.11.26-.165.42-.165h3.431a.59.59 0 0 1 .432.165.57.57 0 0 1 .168.425v15.348a.582.582 0 0 1-.168.413.569.569 0 0 1-.432.177h-3.43a.58.58 0 0 1-.42-.177zm11.59.012a.551.551 0 0 1-.18-.425v-12.09h-4.224a.632.632 0 0 1-.444-.165.551.551 0 0 1-.18-.425V10.85a.608.608 0 0 1 .624-.614h13.029a.608.608 0 0 1 .624.614v2.644c0 .174-.06.315-.18.425a.632.632 0 0 1-.444.166h-4.223v12.089c0 .173-.06.314-.18.425a.632.632 0 0 1-.444.165h-3.335a.632.632 0 0 1-.444-.165zm12.944-1.228c-1.312-1.086-2.008-2.684-2.088-4.793a61.785 61.785 0 0 1-.024-2.03c0-.914.008-1.598.024-2.055.064-2.078.764-3.68 2.1-4.805 1.335-1.125 3.123-1.688 5.362-1.688 2.223 0 4.003.563 5.339 1.688 1.335 1.126 2.035 2.727 2.099 4.805.032.913.048 1.598.048 2.054 0 .472-.016 1.15-.048 2.03-.08 2.11-.772 3.708-2.075 4.794-1.304 1.086-3.092 1.629-5.363 1.629-2.271 0-4.063-.543-5.374-1.63zm7.366-2.656c.495-.496.76-1.256.791-2.279a63.86 63.86 0 0 0 .048-1.96c0-.393-.016-1.03-.048-1.912-.032-1.023-.296-1.783-.791-2.279-.496-.495-1.16-.743-1.992-.743-.848 0-1.52.248-2.015.743-.496.496-.76 1.256-.792 2.279a56.88 56.88 0 0 0-.024 1.912c0 .85.008 1.504.024 1.96.032 1.023.296 1.783.792 2.279.495.495 1.167.743 2.015.743.832 0 1.496-.248 1.992-.743zm13.424 3.872a.562.562 0 0 1-.18-.413V10.85a.61.61 0 0 1 .168-.437.569.569 0 0 1 .432-.177h6.79c2.08 0 3.71.464 4.894 1.393 1.184.929 1.776 2.29 1.776 4.085 0 1.794-.592 3.136-1.776 4.026-1.183.889-2.815 1.334-4.894 1.334h-2.735v5.1a.582.582 0 0 1-.168.413.569.569 0 0 1-.432.177h-3.455a.58.58 0 0 1-.42-.177zm7.09-8.89c.656 0 1.172-.169 1.547-.507.376-.339.564-.839.564-1.5 0-.614-.172-1.11-.516-1.487-.344-.378-.875-.567-1.595-.567h-2.687v4.061h2.687zm10.605 7.674c-1.312-1.086-2.008-2.684-2.088-4.793a61.781 61.781 0 0 1-.024-2.03c0-.914.008-1.598.024-2.055.064-2.078.764-3.68 2.1-4.805 1.336-1.125 3.123-1.688 5.362-1.688 2.224 0 4.003.563 5.339 1.688 1.336 1.126 2.035 2.727 2.1 4.805.031.913.047 1.598.047 2.054 0 .472-.016 1.15-.048 2.03-.08 2.11-.771 3.708-2.075 4.794-1.304 1.086-3.091 1.629-5.363 1.629-2.27 0-4.062-.543-5.374-1.63zm7.366-2.656c.496-.496.76-1.256.792-2.279.032-.913.048-1.566.048-1.96 0-.393-.016-1.03-.048-1.912-.032-1.023-.296-1.783-.792-2.279-.496-.495-1.16-.743-1.992-.743-.847 0-1.52.248-2.015.743-.496.496-.76 1.256-.792 2.279-.016.44-.024 1.078-.024 1.912 0 .85.008 1.504.024 1.96.032 1.023.296 1.783.792 2.279.496.495 1.168.743 2.015.743.832 0 1.496-.248 1.992-.743zm8.386 3.872a.562.562 0 0 1-.18-.413V10.85a.61.61 0 0 1 .168-.437.569.569 0 0 1 .431-.177h3.216c.176 0 .32.06.431.177a.61.61 0 0 1 .168.437v5.147l4.247-5.289c.176-.314.488-.472.936-.472h3.671c.128 0 .244.051.348.154a.47.47 0 0 1 .156.342c0 .126-.032.22-.096.283l-5.59 7.13 6.046 7.84c.064.063.096.157.096.283a.47.47 0 0 1-.156.342.512.512 0 0 1-.372.154h-3.767c-.256 0-.464-.051-.624-.154a.999.999 0 0 1-.336-.318l-4.559-5.761v5.643a.582.582 0 0 1-.168.413.569.569 0 0 1-.431.177h-3.216a.58.58 0 0 1-.42-.177zm16.027 0a.562.562 0 0 1-.18-.413V10.85a.61.61 0 0 1 .168-.437.569.569 0 0 1 .432-.177h11.325a.608.608 0 0 1 .624.614v2.338c0 .173-.06.314-.18.425a.632.632 0 0 1-.444.165h-7.582v2.998h7.054a.608.608 0 0 1 .624.614v2.149a.608.608 0 0 1-.624.614h-7.054v3.07h7.774a.608.608 0 0 1 .624.613v2.338c0 .173-.06.314-.18.425a.632.632 0 0 1-.444.165h-11.517a.58.58 0 0 1-.42-.177zm15.404 0a.562.562 0 0 1-.18-.413V10.85a.61.61 0 0 1 .168-.437.569.569 0 0 1 .432-.177h6.598c2.111 0 3.763.472 4.955 1.417 1.191.944 1.787 2.274 1.787 3.99 0 1.102-.26 2.038-.78 2.81-.52.771-1.235 1.37-2.147 1.794l3.239 5.761a.58.58 0 0 1 .072.26c0 .126-.048.24-.144.342a.473.473 0 0 1-.36.154h-3.383c-.464 0-.792-.213-.984-.638l-2.639-5.123h-2.303v5.17c0 .174-.06.315-.18.426a.632.632 0 0 1-.444.165h-3.287a.58.58 0 0 1-.42-.177zm6.994-9.055c.688 0 1.212-.17 1.572-.508.36-.338.54-.806.54-1.405 0-.598-.18-1.078-.54-1.44-.36-.362-.884-.543-1.572-.543h-2.663v3.896h2.663z"/></g></svg>